# Blender v2.90.1 OBJ File: 'table.blend'
# www.blender.org
mtllib table.mtl
o Cube
v 2.000000 0.670985 1.000000
v 2.292563 0.700459 -0.168375
v 1.720031 0.698175 0.629470
v 1.672340 0.001094 0.677162
v 1.720031 0.698175 0.772274
v 1.672340 0.001094 0.724582
v 1.577227 0.698175 0.629470
v 1.624919 0.001094 0.677162
v 1.577227 0.698175 0.772274
v 1.624919 0.001094 0.724582
v 1.699810 0.355226 0.649692
v 1.699810 0.355226 0.752052
v 1.597449 0.355226 0.752052
v 1.597449 0.355226 0.649692
v 1.587277 0.601940 0.758327
v 1.587277 0.701930 0.758327
v 1.687266 0.601940 0.758327
v 1.687266 0.701930 0.758327
v 1.587277 0.601940 0.758327
v 1.587277 0.701930 0.758327
v 1.687266 0.601940 0.758327
v 1.687266 0.701930 0.758327
v 1.635211 0.605753 0.750935
v 1.635211 0.705742 0.750935
v 1.635211 0.605753 0.650946
v 1.635211 0.705742 0.650946
v 1.907616 0.729015 0.953808
v 2.000000 0.728091 1.000000
v 1.924478 0.728846 0.962239
v 1.939582 0.728695 0.969791
v 1.953808 0.728553 0.976904
v 1.968034 0.728410 0.984017
v 1.983138 0.728259 0.991569
v 2.000000 0.670985 -1.000000
v 2.292563 0.700459 0.168375
v 1.720031 0.698175 -0.629470
v 1.672340 0.001094 -0.677162
v 1.720031 0.698175 -0.772274
v 1.672340 0.001094 -0.724582
v 1.577227 0.698175 -0.629470
v 1.624919 0.001094 -0.677162
v 1.577227 0.698175 -0.772274
v 1.624919 0.001094 -0.724582
v 2.000000 0.670985 0.000000
v 1.699810 0.355226 -0.649692
v 1.699810 0.355226 -0.752052
v 1.597449 0.355226 -0.752052
v 1.597449 0.355226 -0.649692
v 1.587277 0.601940 -0.758327
v 1.587277 0.701930 -0.758327
v 1.587277 0.601940 0.000000
v 1.587277 0.701930 0.000000
v 1.687266 0.601940 -0.758327
v 1.687266 0.701930 -0.758327
v 1.687266 0.601940 0.000000
v 1.687266 0.701930 0.000000
v 1.587277 0.601940 -0.758327
v 1.587277 0.701930 -0.758327
v 1.587277 0.601940 0.000000
v 1.587277 0.701930 0.000000
v 1.687266 0.601940 -0.758327
v 1.687266 0.701930 -0.758327
v 1.687266 0.601940 0.000000
v 1.687266 0.701930 0.000000
v 1.635211 0.605753 -0.750935
v 1.635211 0.705742 -0.750935
v 1.635211 0.605753 -0.650946
v 1.635211 0.705742 -0.650946
v 1.907616 0.729015 -0.953808
v 2.000000 0.728091 -1.000000
v 1.924478 0.728846 -0.962239
v 1.939582 0.728695 -0.969791
v 1.953808 0.728553 -0.976904
v 1.968034 0.728410 -0.984017
v 1.983138 0.728259 -0.991569
v 1.907616 0.729015 0.000000
v 2.000000 0.728091 0.000000
v 1.924478 0.728846 0.000000
v 1.939582 0.728695 0.000000
v 1.953808 0.728553 0.000000
v 1.968034 0.728410 0.000000
v 1.983138 0.728259 0.000000
v -2.000000 0.670985 1.000000
v 0.000000 0.670985 1.000000
v -2.292563 0.700459 -0.168375
v -1.720031 0.698175 0.629470
v -1.672340 0.001094 0.677162
v -1.720031 0.698175 0.772274
v -1.672340 0.001094 0.724582
v -1.577227 0.698175 0.629470
v -1.624919 0.001094 0.677162
v -1.577227 0.698175 0.772274
v -1.624919 0.001094 0.724582
v -1.699810 0.355226 0.649692
v -1.699810 0.355226 0.752052
v -1.597449 0.355226 0.752052
v -1.597449 0.355226 0.649692
v -1.587277 0.601940 0.758327
v -1.587277 0.701930 0.758327
v -1.687266 0.601940 0.758327
v -1.687266 0.701930 0.758327
v -1.587277 0.601940 0.758327
v -1.587277 0.701930 0.758327
v -1.687266 0.601940 0.758327
v -1.687266 0.701930 0.758327
v -1.635211 0.605753 0.750935
v -1.635211 0.705742 0.750935
v 0.000000 0.605753 0.750935
v 0.000000 0.705742 0.750935
v -1.635211 0.605753 0.650946
v -1.635211 0.705742 0.650946
v 0.000000 0.605753 0.650946
v 0.000000 0.705742 0.650946
v -1.907616 0.729015 0.953808
v -2.000000 0.728091 1.000000
v -1.924478 0.728846 0.962239
v -1.939582 0.728695 0.969791
v -1.953808 0.728553 0.976904
v -1.968034 0.728410 0.984017
v -1.983138 0.728259 0.991569
v 0.000000 0.728091 1.000000
v 0.000000 0.729015 0.953808
v 0.000000 0.728259 0.991569
v 0.000000 0.728410 0.984017
v 0.000000 0.728553 0.976904
v 0.000000 0.728695 0.969791
v 0.000000 0.728846 0.962239
v -2.000000 0.670985 -1.000000
v 0.000000 0.670985 -1.000000
v -2.292563 0.700459 0.168375
v -1.720031 0.698175 -0.629470
v -1.672340 0.001094 -0.677162
v -1.720031 0.698175 -0.772274
v -1.672340 0.001094 -0.724582
v -1.577227 0.698175 -0.629470
v -1.624919 0.001094 -0.677162
v -1.577227 0.698175 -0.772274
v -1.624919 0.001094 -0.724582
v -2.000000 0.670985 0.000000
v 0.000000 0.670985 0.000000
v 0.000000 0.729015 0.000000
v -1.699810 0.355226 -0.649692
v -1.699810 0.355226 -0.752052
v -1.597449 0.355226 -0.752052
v -1.597449 0.355226 -0.649692
v -1.587277 0.601940 -0.758327
v -1.587277 0.701930 -0.758327
v -1.587277 0.601940 0.000000
v -1.587277 0.701930 0.000000
v -1.687266 0.601940 -0.758327
v -1.687266 0.701930 -0.758327
v -1.687266 0.601940 0.000000
v -1.687266 0.701930 0.000000
v -1.587277 0.601940 -0.758327
v -1.587277 0.701930 -0.758327
v -1.587277 0.601940 0.000000
v -1.587277 0.701930 0.000000
v -1.687266 0.601940 -0.758327
v -1.687266 0.701930 -0.758327
v -1.687266 0.601940 0.000000
v -1.687266 0.701930 0.000000
v -1.635211 0.605753 -0.750935
v -1.635211 0.705742 -0.750935
v 0.000000 0.605753 -0.750935
v 0.000000 0.705742 -0.750935
v -1.635211 0.605753 -0.650946
v -1.635211 0.705742 -0.650946
v 0.000000 0.605753 -0.650946
v 0.000000 0.705742 -0.650946
v -1.907616 0.729015 -0.953808
v -2.000000 0.728091 -1.000000
v -1.924478 0.728846 -0.962239
v -1.939582 0.728695 -0.969791
v -1.953808 0.728553 -0.976904
v -1.968034 0.728410 -0.984017
v -1.983138 0.728259 -0.991569
v 0.000000 0.728091 -1.000000
v 0.000000 0.729015 -0.953808
v 0.000000 0.728259 -0.991569
v 0.000000 0.728410 -0.984017
v 0.000000 0.728553 -0.976904
v 0.000000 0.728695 -0.969791
v 0.000000 0.728846 -0.962239
v -1.907616 0.729015 0.000000
v -2.000000 0.728091 0.000000
v -1.924478 0.728846 0.000000
v -1.939582 0.728695 0.000000
v -1.953808 0.728553 0.000000
v -1.968034 0.728410 0.000000
v -1.983138 0.728259 0.000000
vt 0.500000 0.581617
vt 0.642143 0.598131
vt 0.708612 0.583337
vt 0.553946 0.560879
vt 0.636826 0.603810
vt 0.500000 0.588930
vt 0.551199 0.570507
vt 0.699679 0.590472
vt 0.642487 0.604326
vt 0.709193 0.590430
vt 0.661297 0.548876
vt 0.658684 0.506932
vt 0.661807 0.505638
vt 0.668204 0.546661
vt 0.658699 0.504918
vt 0.661393 0.545415
vt 0.655585 0.506223
vt 0.654530 0.547667
vt 0.673754 0.587917
vt 0.664113 0.586632
vt 0.654338 0.588947
vt 0.663890 0.590179
vt 0.330305 0.017260
vt 0.330304 0.644175
vt 0.300616 0.649016
vt 0.300616 0.012420
vt 0.342739 0.000255
vt 0.342739 0.661181
vt 0.312131 0.646576
vt 0.312131 0.014860
vt 0.396711 0.652748
vt 0.396888 0.014937
vt 0.427611 0.000255
vt 0.427611 0.642821
vt 0.385816 0.640453
vt 0.386043 0.012386
vt 0.415324 0.017339
vt 0.414997 0.645484
vt 0.215260 0.325490
vt 0.239893 0.655032
vt 0.256674 0.000255
vt 0.256674 0.807469
vt 0.191072 0.814713
vt 0.191074 0.007498
vt 0.232487 0.489469
vt 0.207853 0.159927
vt 0.701416 0.590464
vt 0.637865 0.603905
vt 0.702973 0.590457
vt 0.638793 0.603989
vt 0.704438 0.590451
vt 0.639666 0.604069
vt 0.705903 0.590445
vt 0.640537 0.604148
vt 0.707458 0.590438
vt 0.641460 0.604232
vt 0.551730 0.570291
vt 0.552207 0.570097
vt 0.552657 0.569914
vt 0.553108 0.569730
vt 0.553589 0.569535
vt 0.554127 0.569316
vt 0.460411 0.596835
vt 0.591107 0.609490
vt 0.588081 0.614155
vt 0.461911 0.602636
vt 0.591301 0.614989
vt 0.588601 0.572185
vt 0.583841 0.573711
vt 0.582326 0.538575
vt 0.584489 0.537679
vt 0.577696 0.572876
vt 0.579509 0.538084
vt 0.582412 0.571329
vt 0.581663 0.537182
vt 0.585247 0.608213
vt 0.592010 0.606662
vt 0.583256 0.605785
vt 0.576581 0.607367
vt 0.565673 0.007569
vt 0.595284 0.012500
vt 0.595284 0.639834
vt 0.565673 0.644764
vt 0.615234 0.349694
vt 0.610661 0.349648
vt 0.610661 0.000255
vt 0.615234 0.000300
vt 0.553993 0.010098
vt 0.584217 0.000255
vt 0.584218 0.652079
vt 0.553994 0.642236
vt 0.523873 0.007569
vt 0.553484 0.012500
vt 0.553484 0.639834
vt 0.523872 0.644764
vt 0.620317 0.349694
vt 0.615744 0.349648
vt 0.615744 0.000255
vt 0.620317 0.000300
vt 0.512193 0.010098
vt 0.542417 0.000255
vt 0.542418 0.652079
vt 0.512193 0.642236
vt 0.032733 0.475974
vt 0.060672 0.038005
vt 0.060672 0.999745
vt 0.040604 0.390459
vt 0.000257 0.000255
vt 0.032290 0.518929
vt 0.044926 0.433397
vt 0.000255 0.850370
vt 0.588674 0.614308
vt 0.589203 0.614445
vt 0.589700 0.614574
vt 0.590195 0.614702
vt 0.590719 0.614838
vt 0.461618 0.602723
vt 0.461356 0.602800
vt 0.461110 0.602873
vt 0.460864 0.602946
vt 0.460604 0.603023
vt 0.460314 0.603109
vt 0.322254 0.527236
vt 0.300138 0.558397
vt 0.310493 0.568321
vt 0.333418 0.541225
vt 0.321511 0.537642
vt 0.299457 0.566980
vt 0.355619 0.494244
vt 0.358798 0.490055
vt 0.364461 0.436832
vt 0.362965 0.439226
vt 0.371501 0.492379
vt 0.370172 0.438153
vt 0.368101 0.496475
vt 0.368631 0.440523
vt 0.353588 0.545235
vt 0.349212 0.549601
vt 0.367002 0.551895
vt 0.371829 0.547667
vt 0.354390 0.015029
vt 0.385306 0.000255
vt 0.385306 0.646847
vt 0.354212 0.656836
vt 0.343477 0.012462
vt 0.372942 0.017446
vt 0.372613 0.649526
vt 0.343249 0.644464
vt 0.481702 0.007621
vt 0.511683 0.012547
vt 0.511683 0.642838
vt 0.481634 0.652695
vt 0.470426 0.010112
vt 0.500475 0.000255
vt 0.500408 0.645328
vt 0.470427 0.640403
vt 0.166375 0.325501
vt 0.124963 0.807471
vt 0.124961 0.000255
vt 0.141742 0.655045
vt 0.610151 0.461819
vt 0.603228 0.461819
vt 0.603227 0.000255
vt 0.610151 0.000255
vt 0.190563 0.814714
vt 0.173782 0.159937
vt 0.149148 0.489481
vt 0.190563 0.007499
vt 0.308494 0.568078
vt 0.331283 0.540582
vt 0.306698 0.567860
vt 0.329356 0.540003
vt 0.305001 0.567654
vt 0.327529 0.539453
vt 0.303299 0.567447
vt 0.325690 0.538899
vt 0.301487 0.567227
vt 0.323723 0.538308
vt 0.284917 0.579843
vt 0.294400 0.587343
vt 0.284298 0.587146
vt 0.324194 0.535643
vt 0.329469 0.492818
vt 0.328548 0.494292
vt 0.322258 0.538194
vt 0.333140 0.495093
vt 0.332333 0.539562
vt 0.334091 0.493631
vt 0.334414 0.537056
vt 0.316735 0.582002
vt 0.331033 0.583398
vt 0.333962 0.580833
vt 0.319371 0.579372
vt 0.439016 0.652748
vt 0.439193 0.014937
vt 0.469917 0.000255
vt 0.469917 0.642821
vt 0.620827 0.349674
vt 0.620827 0.000291
vt 0.625400 0.000255
vt 0.625400 0.349638
vt 0.428121 0.640453
vt 0.428348 0.012386
vt 0.457629 0.017339
vt 0.457302 0.645484
vt 0.287855 0.014879
vt 0.287454 0.644296
vt 0.257184 0.649073
vt 0.257184 0.000255
vt 0.625910 0.349674
vt 0.625910 0.000291
vt 0.630483 0.000255
vt 0.630483 0.349638
vt 0.300106 0.012499
vt 0.300106 0.661317
vt 0.269436 0.646693
vt 0.269835 0.017276
vt 0.096689 0.491306
vt 0.088812 0.397853
vt 0.061182 0.935669
vt 0.061181 0.042596
vt 0.595794 0.461819
vt 0.595794 0.000255
vt 0.602718 0.000255
vt 0.602718 0.461819
vt 0.124451 0.000255
vt 0.124451 0.893326
vt 0.088944 0.444625
vt 0.096821 0.538079
vt 0.292557 0.587307
vt 0.290906 0.587275
vt 0.289351 0.587245
vt 0.287795 0.587214
vt 0.286143 0.587182
vn 0.0000 -1.0000 0.0000
vn 0.0000 1.0000 0.0000
vn 1.0000 0.0000 0.0000
vn -0.9970 0.0773 0.0000
vn 0.0000 0.0773 -0.9970
vn 0.9970 0.0773 0.0000
vn -0.0000 0.0773 0.9970
vn 0.0000 0.0589 0.9983
vn 0.9983 0.0589 0.0000
vn 0.0000 0.0589 -0.9983
vn -0.9983 0.0589 0.0000
vn -1.0000 0.0000 0.0000
vn 0.0000 0.0000 1.0000
vn 0.0000 0.0000 -1.0000
vn 0.0100 0.9999 0.0000
vn 0.0100 1.0000 0.0000
vn 0.0000 0.9998 0.0200
vn 0.0000 0.9998 -0.0200
vn -0.0100 0.9999 0.0000
vn -0.0100 1.0000 0.0000
usemtl Material
s off
f 140/1/1 44/2/1 1/3/1 84/4/1
f 76/5/2 141/6/2 122/7/2 27/8/2
f 44/2/3 77/9/3 28/10/3 1/3/3
f 11/11/4 4/12/4 6/13/4 12/14/4
f 12/14/5 6/13/5 10/15/5 13/16/5
f 13/16/6 10/15/6 8/17/6 14/18/6
f 14/18/7 8/17/7 4/12/7 11/11/7
f 5/19/1 9/20/1 7/21/1 3/22/1
f 10/15/2 6/13/2 4/12/2 8/17/2
f 7/21/8 14/18/8 11/11/8 3/22/8
f 9/20/9 13/16/9 14/18/9 7/21/9
f 5/19/10 12/14/10 13/16/10 9/20/10
f 3/22/11 11/11/11 12/14/11 5/19/11
f 15/23/12 16/24/12 52/25/12 51/26/12
f 55/27/3 56/28/3 18/29/3 17/30/3
f 17/30/13 18/29/13 16/24/13 15/23/13
f 51/26/1 55/27/1 17/30/1 15/23/1
f 56/28/2 52/25/2 16/24/2 18/29/2
f 19/31/12 20/32/12 60/33/12 59/34/12
f 63/35/3 64/36/3 22/37/3 21/38/3
f 21/38/13 22/37/13 20/32/13 19/31/13
f 59/34/1 63/35/1 21/38/1 19/31/1
f 64/36/2 60/33/2 20/32/2 22/37/2
f 23/39/13 24/40/13 109/41/13 108/42/13
f 112/43/14 113/44/14 26/45/14 25/46/14
f 25/46/3 26/45/3 24/40/3 23/39/3
f 108/42/1 112/43/1 25/46/1 23/39/1
f 113/44/2 109/41/2 24/40/2 26/45/2
f 76/5/15 27/8/15 29/47/15 78/48/15
f 78/48/16 29/47/16 30/49/16 79/50/16
f 79/50/15 30/49/15 31/51/15 80/52/15
f 80/52/15 31/51/15 32/53/15 81/54/15
f 81/54/15 32/53/15 33/55/15 82/56/15
f 82/56/15 33/55/15 28/10/15 77/9/15
f 27/8/17 122/7/17 127/57/17 29/47/17
f 29/47/17 127/57/17 126/58/17 30/49/17
f 30/49/17 126/58/17 125/59/17 31/51/17
f 31/51/17 125/59/17 124/60/17 32/53/17
f 32/53/17 124/60/17 123/61/17 33/55/17
f 33/55/17 123/61/17 121/62/17 28/10/17
f 1/3/13 28/10/13 121/62/13 84/4/13
f 140/1/1 129/63/1 34/64/1 44/2/1
f 76/5/2 69/65/2 178/66/2 141/6/2
f 44/2/3 34/64/3 70/67/3 77/9/3
f 45/68/4 46/69/4 39/70/4 37/71/4
f 46/69/7 47/72/7 43/73/7 39/70/7
f 47/72/6 48/74/6 41/75/6 43/73/6
f 48/74/5 45/68/5 37/71/5 41/75/5
f 38/76/1 36/77/1 40/78/1 42/79/1
f 43/73/2 41/75/2 37/71/2 39/70/2
f 40/78/10 36/77/10 45/68/10 48/74/10
f 42/79/9 40/78/9 48/74/9 47/72/9
f 38/76/8 42/79/8 47/72/8 46/69/8
f 36/77/11 38/76/11 46/69/11 45/68/11
f 49/80/12 51/81/12 52/82/12 50/83/12
f 51/84/13 55/85/13 56/86/13 52/87/13
f 55/88/3 53/89/3 54/90/3 56/91/3
f 53/89/14 49/80/14 50/83/14 54/90/14
f 51/81/1 49/80/1 53/89/1 55/88/1
f 56/91/2 54/90/2 50/83/2 52/82/2
f 57/92/12 59/93/12 60/94/12 58/95/12
f 59/96/13 63/97/13 64/98/13 60/99/13
f 63/100/3 61/101/3 62/102/3 64/103/3
f 61/101/14 57/92/14 58/95/14 62/102/14
f 59/93/1 57/92/1 61/101/1 63/100/1
f 64/103/2 62/102/2 58/95/2 60/94/2
f 65/104/14 164/105/14 165/106/14 66/107/14
f 168/108/13 67/109/13 68/110/13 169/111/13
f 67/109/3 65/104/3 66/107/3 68/110/3
f 164/105/1 65/104/1 67/109/1 168/108/1
f 169/111/2 68/110/2 66/107/2 165/106/2
f 76/5/15 78/48/15 71/112/15 69/65/15
f 78/48/15 79/50/15 72/113/15 71/112/15
f 79/50/15 80/52/15 73/114/15 72/113/15
f 80/52/16 81/54/16 74/115/16 73/114/16
f 81/54/15 82/56/15 75/116/15 74/115/15
f 82/56/15 77/9/15 70/67/15 75/116/15
f 69/65/18 71/112/18 183/117/18 178/66/18
f 71/112/18 72/113/18 182/118/18 183/117/18
f 72/113/18 73/114/18 181/119/18 182/118/18
f 73/114/18 74/115/18 180/120/18 181/119/18
f 74/115/18 75/116/18 179/121/18 180/120/18
f 75/116/18 70/67/18 177/122/18 179/121/18
f 34/64/14 129/63/14 177/122/14 70/67/14
f 140/1/1 84/4/1 83/123/1 139/124/1
f 184/125/2 114/126/2 122/7/2 141/6/2
f 139/124/12 83/123/12 115/127/12 185/128/12
f 94/129/6 95/130/6 89/131/6 87/132/6
f 95/130/5 96/133/5 93/134/5 89/131/5
f 96/133/4 97/135/4 91/136/4 93/134/4
f 97/135/7 94/129/7 87/132/7 91/136/7
f 88/137/1 86/138/1 90/139/1 92/140/1
f 93/134/2 91/136/2 87/132/2 89/131/2
f 90/139/8 86/138/8 94/129/8 97/135/8
f 92/140/11 90/139/11 97/135/11 96/133/11
f 88/137/10 92/140/10 96/133/10 95/130/10
f 86/138/9 88/137/9 95/130/9 94/129/9
f 98/141/3 148/142/3 149/143/3 99/144/3
f 152/145/12 100/146/12 101/147/12 153/148/12
f 100/146/13 98/141/13 99/144/13 101/147/13
f 148/142/1 98/141/1 100/146/1 152/145/1
f 153/148/2 101/147/2 99/144/2 149/143/2
f 102/149/3 156/150/3 157/151/3 103/152/3
f 160/153/12 104/154/12 105/155/12 161/156/12
f 104/154/13 102/149/13 103/152/13 105/155/13
f 156/150/1 102/149/1 104/154/1 160/153/1
f 161/156/2 105/155/2 103/152/2 157/151/2
f 106/157/13 108/158/13 109/159/13 107/160/13
f 108/161/3 112/162/3 113/163/3 109/164/3
f 112/165/14 110/166/14 111/167/14 113/168/14
f 110/166/12 106/157/12 107/160/12 111/167/12
f 108/158/1 106/157/1 110/166/1 112/165/1
f 113/168/2 111/167/2 107/160/2 109/159/2
f 184/125/19 186/169/19 116/170/19 114/126/19
f 186/169/19 187/171/19 117/172/19 116/170/19
f 187/171/19 188/173/19 118/174/19 117/172/19
f 188/173/20 189/175/20 119/176/20 118/174/20
f 189/175/19 190/177/19 120/178/19 119/176/19
f 190/177/19 185/128/19 115/127/19 120/178/19
f 114/126/17 116/170/17 127/57/17 122/7/17
f 116/170/17 117/172/17 126/58/17 127/57/17
f 117/172/17 118/174/17 125/59/17 126/58/17
f 118/174/17 119/176/17 124/60/17 125/59/17
f 119/176/17 120/178/17 123/61/17 124/60/17
f 120/178/17 115/127/17 121/62/17 123/61/17
f 83/123/13 84/4/13 121/62/13 115/127/13
f 140/1/1 139/124/1 128/179/1 129/63/1
f 184/125/2 141/6/2 178/66/2 170/180/2
f 139/124/12 185/128/12 171/181/12 128/179/12
f 142/182/6 132/183/6 134/184/6 143/185/6
f 143/185/7 134/184/7 138/186/7 144/187/7
f 144/187/4 138/186/4 136/188/4 145/189/4
f 145/189/5 136/188/5 132/183/5 142/182/5
f 133/190/1 137/191/1 135/192/1 131/193/1
f 138/186/2 134/184/2 132/183/2 136/188/2
f 135/192/10 145/189/10 142/182/10 131/193/10
f 137/191/11 144/187/11 145/189/11 135/192/11
f 133/190/8 143/185/8 144/187/8 137/191/8
f 131/193/9 142/182/9 143/185/9 133/190/9
f 146/194/3 147/195/3 149/196/3 148/197/3
f 148/198/13 149/199/13 153/200/13 152/201/13
f 152/202/12 153/203/12 151/204/12 150/205/12
f 150/205/14 151/204/14 147/195/14 146/194/14
f 148/197/1 152/202/1 150/205/1 146/194/1
f 153/203/2 149/196/2 147/195/2 151/204/2
f 154/206/3 155/207/3 157/208/3 156/209/3
f 156/210/13 157/211/13 161/212/13 160/213/13
f 160/214/12 161/215/12 159/216/12 158/217/12
f 158/217/14 159/216/14 155/207/14 154/206/14
f 156/209/1 160/214/1 158/217/1 154/206/1
f 161/215/2 157/208/2 155/207/2 159/216/2
f 162/218/14 163/219/14 165/220/14 164/221/14
f 164/222/3 165/223/3 169/224/3 168/225/3
f 168/226/13 169/227/13 167/228/13 166/229/13
f 166/229/12 167/228/12 163/219/12 162/218/12
f 164/221/1 168/226/1 166/229/1 162/218/1
f 169/227/2 165/220/2 163/219/2 167/228/2
f 184/125/19 170/180/19 172/230/19 186/169/19
f 186/169/20 172/230/20 173/231/20 187/171/20
f 187/171/19 173/231/19 174/232/19 188/173/19
f 188/173/19 174/232/19 175/233/19 189/175/19
f 189/175/19 175/233/19 176/234/19 190/177/19
f 190/177/19 176/234/19 171/181/19 185/128/19
f 170/180/18 178/66/18 183/117/18 172/230/18
f 172/230/18 183/117/18 182/118/18 173/231/18
f 173/231/18 182/118/18 181/119/18 174/232/18
f 174/232/18 181/119/18 180/120/18 175/233/18
f 175/233/18 180/120/18 179/121/18 176/234/18
f 176/234/18 179/121/18 177/122/18 171/181/18
f 128/179/14 171/181/14 177/122/14 129/63/14
